<svg width="745" height="544" viewBox="0 0 745 544" fill="none" xmlns="http://www.w3.org/2000/svg">
<path d="M0.5 0.5H28H69H138.5H262.5H502.5H625.5H698.5H739.588H745C744.724 0.5 744.5 0.723857 744.5 1V27V52.5V76V99L746 241V414.5V504.5V527V541C746 542.381 744.881 543.5 743.5 543.5H675H609.5H556.5H511.5L467.5 542L422 539L394 537L366 534C339.116 530.017 312.871 522.524 287.937 511.712L269 503.5L246.289 492.145C232.787 485.394 219.881 477.512 207.707 468.585C170.533 441.324 141.03 404.924 122.057 362.911L116 349.5C99.4458 300.831 89.7282 249.787 84.8737 198.609C84.045 189.873 83.2356 181.53 82.5219 174.262C80.8679 157.419 78.4493 140.67 75.3517 124.032L64.0802 63.4881C63.03 57.847 61.3534 52.3408 59.0814 47.0717L54.2441 35.8534C44.9925 14.3975 23.8656 0.5 0.5 0.5Z" fill="#E26F64" stroke="#E58D82"/>
</svg>
