<svg width="531" height="435" viewBox="0 0 531 435" fill="none" xmlns="http://www.w3.org/2000/svg">
<path d="M0 -2H20.104H50.0771H100.885H191.536H366.989H456.908H510.275H540.313H544.269C544.067 -2 543.903 -1.83635 543.903 -1.63447V19.2781V39.7532V58.6225V77.0902L545 191.109V330.42V402.685V420.751V432.172C545 433.182 544.182 434 543.172 434H493.095H445.211H406.465H373.568L341.402 432.796L308.139 430.387L287.669 428.781L267.2 426.372C247.561 423.176 228.474 417.212 210.51 408.656L196.288 401.882L180.625 393.28C170.13 387.517 160.163 380.842 150.839 373.331C124.063 351.765 103.168 323.784 90.0934 291.986L84.4366 278.228C72.3213 239.107 65.2467 198.397 61.7267 157.594C61.1047 150.383 60.496 143.491 59.961 137.507C58.7527 123.992 56.9837 110.541 54.7161 97.1631L46.3605 47.8683C45.6722 43.8073 44.5667 39.8283 43.0615 35.9943L38.4309 24.1989C32.2263 8.39453 16.9787 -2 0 -2Z" fill="#E26F64" stroke="#E26F64"/>
</svg>
