<svg width="40" height="40" viewBox="0 0 40 40" fill="none" xmlns="http://www.w3.org/2000/svg">
<path d="M39 20C39 30.4934 30.4934 39 20 39C9.50659 39 1 30.4934 1 20C1 9.50659 9.50659 1 20 1C30.4934 1 39 9.50659 39 20Z" fill="#E26F64" stroke="#E26F64" stroke-width="2"/>
<path d="M29.6361 19.3677C29.4017 19.1333 29.0838 19.0016 28.7522 19.0016H21.511H14.2697L19.6372 13.6366C19.872 13.4019 20.0038 13.0835 20.0038 12.7516C20.0038 12.4196 19.872 12.1013 19.6372 11.8666C19.4025 11.6319 19.0842 11.5 18.7522 11.5C18.4203 11.5 18.102 11.6319 17.8672 11.8666L10.3672 19.3666C10.2508 19.4827 10.1585 19.6206 10.0955 19.7725C10.0324 19.9244 10 20.0872 10 20.2516C10 20.416 10.0324 20.5788 10.0955 20.7307C10.1585 20.8825 10.2508 21.0205 10.3672 21.1366L17.8672 28.6366C17.9835 28.7528 18.1214 28.845 18.2733 28.9079C18.4251 28.9708 18.5879 29.0032 18.7522 29.0032C18.9166 29.0032 19.0793 28.9708 19.2312 28.9079C19.383 28.845 19.521 28.7528 19.6372 28.6366C19.7535 28.5204 19.8456 28.3824 19.9085 28.2305C19.9714 28.0787 20.0038 27.9159 20.0038 27.7516C20.0038 27.5872 19.9714 27.4245 19.9085 27.2726C19.8456 27.1208 19.7535 26.9828 19.6372 26.8666L14.2697 21.5016H28.7522C29.0838 21.5016 29.4017 21.3699 29.6361 21.1355C29.8705 20.901 30.0022 20.5831 30.0022 20.2516C30.0022 19.9201 29.8705 19.6021 29.6361 19.3677Z" fill="white"/>
</svg>
