<svg width="383" height="223" viewBox="0 0 383 223" fill="none" xmlns="http://www.w3.org/2000/svg">
<path d="M0 0H14.1281H35.1918H70.8974H134.602H257.902H321.093H358.597H379.706H382.486C382.344 0 382.229 0.115007 382.229 0.256875V10.8343V21.2597V30.8674V40.2707L383 98.326V169.26V206.055V215.254V220.716C383 221.425 382.425 222 381.716 222H346.524H312.873H285.645H262.526L239.921 221.387L216.545 220.16L202.16 219.343L187.775 218.116C173.944 216.485 160.329 213.372 147.164 208.829L137.942 205.646L124.869 200.445C118.865 198.056 113.048 195.221 107.467 191.964C87.7205 180.44 71.3754 163.896 60.0912 144.012L59.338 142.685C50.8635 122.858 45.8034 101.531 43.2425 80.1205C42.8545 76.8762 42.4774 73.7859 42.1415 71.0635C41.2901 64.1637 40.0497 57.3214 38.4661 50.5522L32.9139 26.819C32.2094 23.8077 31.1059 20.9039 29.6326 18.1848L29.2022 17.3906C23.3961 6.67496 12.1875 0 0 0Z" fill="#E26F64" stroke="#E26F64"/>
</svg>
